{"title":"Revolution Z - Sex luji i muzika (S01E09)","uid":7958772,"size":482734556,"categoryP":"video","categoryS":"tv_shows","magnet":"?xt=urn:btih:a9a2fe00d5cde0ed94d083dd32d68e16cc9413a6&amp;dn=Revolution+Z+-+Sex+luji+i+muzika+%28S01E09%29&amp;tr=udp%3A%2F%2Ftracker.openbittorrent.com%3A80&amp;tr=udp%3A%2F%2Fopen.demonii.com%3A1337&amp;tr=udp%3A%2F%2Ftracker.coppersurfer.tk%3A6969&amp;tr=udp%3A%2F%2Fexodus.desync.com%3A6969","seeders":0,"leechers":0,"uploader":"api731","files":1,"time":1356521029,"description":"      Video #561\n      ID : 561 (0x231)\n      Menu ID : 1 (0x1)\n      Format : AVC\n      Format/Info : Advanced Video Codec\n      Format profile : &lt;a class=&quot;__cf_email__&quot; href=&quot;/cdn-cgi/l/email-protection&quot; data-cfemail=&quot;8ac7ebe3e4cac6b9a4ba&quot;&gt;[email&amp;#160;protected]&lt;/a&gt;&lt;script cf-hash='f9e31' type=&quot;text/javascript&quot;&gt;\n/* &lt;![CDATA[ */!function(){try{var t=&quot;currentScript&quot;in document?document.currentScript:function(){for(var t=document.getElementsByTagName(&quot;script&quot;),e=t.length;e--;)if(t[e].getAttribute(&quot;cf-hash&quot;))return t[e]}();if(t&amp;&amp;t.previousSibling){var e,r,n,i,c=t.previousSibling,a=c.getAttribute(&quot;data-cfemail&quot;);if(a){for(e=&quot;&quot;,r=parseInt(a.substr(0,2),16),n=2;a.length-n;n+=2)i=parseInt(a.substr(n,2),16)^r,e+=String.fromCharCode(i);e=document.createTextNode(e),c.parentNode.replaceChild(e,c)}}}catch(u){}}();/* ]]&gt; */&lt;/script&gt;\n      Format settings, CABAC : Yes\n      Format settings, ReFrames : 4 frames\n      Codec ID : 27\n      Duration : 46mn 15s\n      Bit rate : 1 064 Kbps\n      Width : 720 pixels\n      Height : 576 pixels\n      Display aspect ratio : 4:3\n      Frame rate : 25.000 fps\n      Standard : PAL\n      Color space : YUV\n      Chroma subsampling : 4:2:0\n      Bit depth : 8 bits\n      Scan type : MBAFF\n      Bits/(Pixel*Frame) : 0.103\n      Stream size : 352 MiB (76%)\n      Color primaries : BT.601 PAL\n      Transfer characteristics : BT.470 System B, BT.470 System G\n      Matrix coefficients : BT.601\n      Audio #577\n      ID : 577 (0x241)\n      Menu ID : 1 (0x1)\n      Format : MPEG Audio\n      Format version : Version 1\n      Format profile : Layer 2\n      Codec ID : 3\n      Duration : 46mn 14s\n      Bit rate mode : Constant\n      Bit rate : 256 Kbps\n      Channel(s) : 2 channels\n      Sampling rate : 48.0 KHz\n      Compression mode : Lossy\n      Stream size : 84.7 MiB (18%)\n      Language : Bulgarian","torrent":{"xt":"urn:btih:a9a2fe00d5cde0ed94d083dd32d68e16cc9413a6","amp;dn":"Revolution+Z+-+Sex+luji+i+muzika+%28S01E09%29","amp;tr":["udp%3A%2F%2Ftracker.openbittorrent.com%3A80","udp%3A%2F%2Fopen.demonii.com%3A1337","udp%3A%2F%2Ftracker.coppersurfer.tk%3A6969","udp%3A%2F%2Fexodus.desync.com%3A6969"],"infoHash":"a9a2fe00d5cde0ed94d083dd32d68e16cc9413a6","infoHashBuffer":{"type":"Buffer","data":[169,162,254,0,213,205,224,237,148,208,131,221,50,214,142,22,204,148,19,166]},"announce":[],"urlList":[]}}